<svg xmlns="http://www.w3.org/2000/svg" xml:space="preserve" viewBox="0 0 204 247">
  <path fill="#FEFEFE" d="M1 74V1h87l2 4 7 5-3 8h-7l-4-7-1-1-1 1h1l-1 1v22l1 5 2-3h4c2-5 6-2 9-3l-1 16-1 1h-8l-1-1-2-2-1-2 2-3h-5l-6-5-4-1h-7c-4-3-8-2-10 3l-6-1v1l-8 3 1 7-1 1-6 4-14 8v4l-1 1-1 1h-1l-5-1v2l4 2-5 3-1 1-8-1m37-26v-1 1m-10 4v1-1M9 71h1-1m1-4s-1 0 0 0m20-17s0 1 0 0m3-4s1 0 0 0m36-13s0 1 0 0m20 5s0 1 0 0m-5 2s0-1 0 0zm31-39h90v80h-1l-4-3c1-7-6-7-7-11l-7-1-1-1-1-1-2-7-5 1-9-8v-4c2-4 0-5-4-5l-1-1h-3l-22-5-1-2-1 1 1 2-5 1c-4-2-4 0-4 3h-2l-2-2V12c3-2 2-3-1-3l-8 9-7-1c-3-7 0-11 6-14l1-2m41 35v1-1m-11-2v-1 1m28 16s1 0 0 0z"/>
  <path fill="#F9FAF7" d="M204 81h1v167h-81c5-2 6-7 7-11l3-2 3-3c4-3 5-2 6 2l5 6 4-3 4-2 3-2 6 3 13-14-10-9-1-2v-2l2-3 2-1 2 4 4-4c4-1 3-3 2-5v-2l9-3v1l3-1-4-4 5-5-7-2-1-1-1-7v-1l2-1 2-3v-1h2l3-1c7-1 1-4 1-6h4l1-3-1-1-3-2-3-4v-1l1-2 1-3 2-1c5-1 5-1 3-6l-1-4 3 4 1-4-11-5-4 1h-2c7-7 3-16-3-19v-1h9c-3-8-3-8 3-12h-9v-4l17-12 3-3m-5 74-2-1v2l2-1z"/>
  <path fill="#FAFBF8" d="m1 74 8 1v1l-8 6 6 3 15 12v3l-10-1-1 2c10 2 8 7 4 12l5-2h1l2 1-1 5-2 3-2 3 1 3v2l3 5-7 2h-1v-1h-1l-3-1-2 2c-3 0-3 1-1 2l4 2c0 2-3 4 1 4l2 4 3 9v1l-3 1-7 3v1l6 1 1 2s0 1 0 0l-5 4a1168 1168 0 0 1 12 4l2 3-1 1 1 3v1l-1 1-6 5 2 3-4 5 6 2 3 1 1 7 3 1 4 1v2l2 2 1-3 1-1 2-1v6l-1 1h-1l-1 1h-1v2h-1l-1-1v-1l-4-1 1 1c2 4 1 7-1 9 6 2 8 6 7 12l5-3v4c0-5 4 0 5-2v-4l3 1 5 7c-5 1-6 2-3 7v3H1V74m21 134 1 4 2-1-3-3z"/>
  <path fill="#130F0B" d="M92 248h-9l-7-7-4-7 2-1 6 1c6 2 8 1 8-6-1-6-5-5-8-5l-7-3-8-3-6-5-10-11 3-1c9 13 22 18 36 20l3-4v14c0 7-4 9-11 8l-2-1c2 8 5 10 14 6h4l5-4 1-3v-22l1-6v2l1 26c0 6 4 7 10 8l4 1 3 3h-10l-8-5-11 5z"/>
  <path fill="#F5F7EB" d="m72 234 4 7 7 7H49v-3c-3-5-2-6 3-7h2c3 1 5 2 6-1l4-7 6 4h2z"/>
  <path fill="#181510" d="m121 248-2-3c6 1 7-3 9-7l-11-2 3-1 11-2v4c-1 4-2 9-8 11h-2z"/>
  <path fill="#2A0606" d="m115 1-1 2H94l3 5v1l-7-4-2-4h27z"/>
  <path fill="#ECEFE9" d="m92 248 11-5 8 5H92z"/>
  <path fill="#14100D" d="M9 76v-1l1-1 5-4 1-1 1-1 1-1 2-1 13-12 6-4v7l3 2 1-3-2-7-2-7 8-3v-1l6 1 10-2h11a202 202 0 0 1 9 8l1 2 2 3h2a20638 20638 0 0 1 8 1v2l-11 1c-4 1-3-2-3-3-3-8-12-15-20-10l3 2v2l-7-4c-2 0-6-1-7 3h-9l4 13h4l-1 1-2 1c-5 5-7 4-12-2L10 78l-1-2z"/>
  <path fill="#DF0422" d="M87 18h8l2 2v8l-3 2-9 1-2-9c-1-3 1-5 4-4z"/>
  <path fill="#070002" d="m94 30 3-2 1 1v76l-1-1V72l-2-3a200 200 0 0 0 1-19l1-1V33l-3-3z"/>
  <path fill="#0F0504" d="M87 18c-3-1-5 1-4 4l2 9-1 5-2 3v-6l-1-5 1-2-1-9 1-4-1-1 1-1h1l4 7z"/>
  <path fill="#FAFBF8" d="M33 54 20 66l-1-4 14-8zm51-18 1-5 9-1 3 3c-3 1-7-2-9 3h-4z"/>
  <path fill="#DDDCDB" d="m40 49 3 7-1 3-3-2v-7l1-1z"/>
  <path fill="#FAFBF8" d="m63 36-9 3c1-5 5-6 9-3z"/>
  <path fill="#96091E" d="m97 19-2-1 2-8 1-2c1 4 3 8-1 11z"/>
  <path fill="#FAFBF8" d="m16 68-1 2-4-1v-2l5 1zm67-23c-1-1-2-1-2-3h4l-2 3zm-9-8h-3 3zm12 12-2-2 2 2zm-48-1v-1 1zm-10 4v1-1zM9 71h1-1zm87-22v1h-1l1-1zM45 35v-1 1z"/>
  <path fill="#7B7C81" d="M83 11h-1v-1l1 1zm-2 1 1 1-1-1zm1-2z"/>
  <path fill="#FAFBF8" d="m18 67-1 1 1-1zm-8 7-1 1 1-1zm0-7c-1 0 0 0 0 0zm20-17c0 1 0 0 0 0zm3-4c1 0 0 0 0 0zm55 4h-1 1zM47 38zm22-5c0 1 0 0 0 0zm19 3zm1 2c0 1 0 0 0 0zm-5 2c0-1 0 0 0 0z"/>
  <path fill="#14100B" d="m119 235-2 1-2-6v-13l1-3v7l14-4c16-6 27-16 31-32 2-7 1-15 1-22l1-21-1-8a65 65 0 0 1 19-40v-1l18-12-28-24c-5 7-5 7-11 3h-2v-1l-3-2c7 0 4-5 7-8l1-3v-2h3l-3 11 1 4 3-3 1-6 10 9a1943 1943 0 0 0 9 7l13 12 4 3-3 3-17 12-9 10-3 7-1 1-1 2-1 4-2 7-1 4v24l1 20v2l-4 14-1 1c-3 6-5 11-10 15l-1 5-5 1-4 3c-3 1-4 3-6 5l-9 1c-9 1-9 1-9 8l1 5z"/>
  <path fill="#1A1612" d="M166 44h-3l-11 1v-2l-1-1h-4l-4 1-2-1 4-1c-10-3-16-1-20 8l-2 11c-2-7-6-9-14-6v15h17l-1-4 6 6-2 1-21-1v12c0 3 1 4 4 4l-4 2h-1V28h1v19c0 2 0 4 3 3h9l1-1v-1l1-1 1-3 2-1v-1l1-1h1l1-2h1l1-1 2-1a365 365 0 0 0 6-1l23 5h4l1 1v2z"/>
  <path fill="#FEFEFE" d="M120 50a46 46 0 0 1-8 0h-1l-1-14 3-3 5-1 4 5 2 1 2 2v1l-1 1h-2v2l-1 3-1 1v1l-1 1m0-13s0 1 0 0m1 4s-1 0 0 0z"/>
  <path fill="#D9051F" d="M97 20c4-4 2-8 1-12l-4-5h20c-6 3-9 7-6 15l3 3v1h-4l-5-2-3 2-2-1v-1z"/>
  <path fill="#D00620" d="m111 21-3-3h8l5-1v12c0 3-2 2-4 1l-9-1v-1l-2-1v1l-1 3-3 2v-7h1l3-2-3-1v-1a678 678 0 0 0 7 2v3c4-4 4-4 1-6z"/>
  <path fill="#F9FAF7" d="M166 44v-2l-1-1c3 0 5 1 3 5v4l-1 6-3 3-1-4 3-11zm34 34-13-12 6 1c1 4 8 4 7 11z"/>
  <path fill="#0D0503" d="M118 30c1 1 3 2 3-1V17h3l-1 8 1 9-1 3h-1l-4-5v-2z"/>
  <path fill="#3D3737" d="M124 17h-3l-5 1 8-8v7z"/>
  <path fill="#F9FAF7" d="m184 64-6-5 4-2 2 7zm-52-27-2 1-1 1h-1c0-2 0-4 4-2zm6-2v1l-2-2 1-1 1 2zm-14-23V9c2 0 3 1 0 3zm39 28-2 1 2-1zm-6-4-1 1 1-1z"/>
  <path fill="#3D3737" d="M122 37h1l1 1-2-1z"/>
  <path fill="#F9FAF7" d="M145 34v-1 1zm40 31-1-1 1 1zm-12-15c1 0 0 0 0 0z"/>
  <path fill="#4D791E" d="m167 175-1-20v-20l2 5 9-2 1 1-9 4h-1l1 1v2l-2 9 3 3 2-3-2-7 2 1 5 9 12 1h2l1 3 1-1-2-2v-2h3l1 3v3h-2c0 2 6 5-1 6l-4-7-3 7-1-1-1-3-6-2 3 4s-1 2-2 1l-4-2-2 6-5 3z"/>
  <path fill="#4E7B23" d="m168 213 10 9-13 14-6-3 1-5v-2l-2-1a286 286 0 0 1 6-10l5 1-1-3z"/>
  <path fill="#4F7C1B" d="m163 191 4-14 8 8 1 15-5 5-2 1c-2-2-2-5-3-7l1-2c2 4 4 5 6 1l-5-3-5-3v-1z"/>
  <path fill="#588221" d="m152 237-4 3-5-6c-1-4-2-5-6-2-2-2-3-2-5-1l-1-2 4-2 6-2 4 3 7 9z"/>
  <path fill="#457518" d="m175 106 9-10v4h9c-6 4-6 4-3 12l-8-1 2-6c-4 1-6 5-9 1z"/>
  <path fill="#859E15" d="m152 237-7-9 3-2c5 3 7 2 8-2l2 1 2 1v2l-1 4-3 3-4 2z"/>
  <path fill="#7C9C17" d="m163 192 5 3 5 3c-2 4-4 3-6-1l-1 2 2 7-1 3h-3l-3 1-1-1 3-5-3-2c5-1 4-4 3-7v-3z"/>
  <path fill="#CBD6B6" d="M181 113c6 3 10 12 3 19h-2l-1-1 1-4-2-2 3-4-2-8z"/>
  <path fill="#E8F0DE" d="m186 132 4-1 11 5-1 4-3-4 1 4c2 5 2 5-3 6l-2 1 1-3v-1l1-3-2-4-1-1h-1l-5-3z"/>
  <path fill="#4B7C23" d="m185 184 7 2-5 5 4 4h-3l-9-6 1-4 5-1z"/>
  <path fill="#819C19" d="m180 185-1 4c-1 4-2 6 0 9v2h-3a316 316 0 0 1 0-15h4z"/>
  <path fill="#7B9521" d="M175 106c3 4 5 0 9-1l-2 7h-1l-2 1h-7l3-7z"/>
  <path fill="#417518" d="M179 198c-2-3-1-5 0-9l9 6-9 3z"/>
  <path fill="#8CA622" d="M176 200h3c1 2 2 4-2 5l-4 4-2-4 5-5z"/>
  <path fill="#457518" d="m193 147-1 3-1 2v1l-2 2-4-2 2-4 2-2h4z"/>
  <path fill="#7B9E27" d="m131 229 1 2 2 4-3 2v-4l-7-4a255 255 0 0 1 7 0z"/>
  <path fill="#C54C50" d="m179 113 2-1v1l2 8-5-1 1-2h-2l-1-1h1l2-2v-2z"/>
  <path fill="#4A7919" d="m185 169 3-7 4 7-3 1-2-2-1 1h-1z"/>
  <path fill="#99A139" d="m186 132 4 3-1 1-1 1-1-1-3-2v-1l1-1h1z"/>
  <path fill="#DA676B" d="m168 213 1 3-5-1 2-4h1l1 2z"/>
  <path fill="#4D7A1B" d="m134 235-2-4c2-1 3-1 5 1l-3 3z"/>
  <path fill="#E3F0D8" d="M185 169h1l1 2-2 3v-1l-1-1-1-1v-2h2z"/>
  <path fill="#CF5852" d="M183 175v1h-1l-1 1h-3l2-5h1l1 1 1 2z"/>
  <path fill="#E8F0DE" d="m189 155 2-2 3 4h-3l-2-2z"/>
  <path fill="#948F2C" d="M180 185h-3l2-1h2l2-1 1 1h1l-5 1z"/>
  <path fill="#4F6E1C" d="m183 175-1-2 1-2 1 1 1 1v1l-2 1z"/>
  <path fill="#9C402D" d="M184 183h-1v-7l1 7z"/>
  <path fill="#4A7919" d="M195 163v-3h3l-1 3h-2z"/>
  <path fill="#CD101E" d="M167 211h-3v-2h3v2z"/>
  <path fill="#E8F0DE" d="M196 160h-1l-1-3 3 2-1 1zm2-4h-1v-2l1 2z"/>
  <path fill="#7B9E27" d="m187 168 2 2h-2v-2z"/>
  <path fill="#588221" d="M187 168v3l-1-1 1-2z"/>
  <path fill="#CBD6B6" d="m185 132-1 1h-1l1-1h1z"/>
  <path fill="#4D791E" d="M197 160v-1l1 1h-1z"/>
  <path fill="#14110D" d="m9 76 1 2-3 4c11 5 19 12 26 21 6 8 8 17 10 26v48l8 23-2 1-6-10-2-6-2-16v-2l1-3v-32l-1-6-2-7-2-6-3-5-10-11L7 85l-6-3 8-6z"/>
  <path fill="#4E7D26" d="M35 213h1c0 6 5 5 8 5 3 2 6 5 3 7-2 3 0 4 0 6l-3-1v4c-1 2-5-3-5 2v-4l-5 3c1-6-1-10-7-12 2-2 3-5 1-9h3v1l1 1v1l1-1v-1l1-1 1-1z"/>
  <path fill="#4B7C20" d="m20 197-6-2 4-5-2-3 6-5v1l-2 3h7l1 11 1 2-3 1-3-2v-1h-3z"/>
  <path fill="#4B7821" d="m22 97 10 11-7-1-2 3v1l-2-1-1 1-5 2c4-5 6-10-4-12l1-2 10 1v-3z"/>
  <path fill="#849B18" d="M47 231c0-2-2-3 0-6 3-2 0-5-3-7l2-2 4 2a72 72 0 0 0 1 7c-2 3-1 4 2 4l6-4 4-3 1 1-10 15h-2l-5-7z"/>
  <path fill="#809F06" d="M17 157v-1c6-1 4-5 5-9l1-1 5 2c4 4 2 7 0 10h-2l-9-1z"/>
  <path fill="#CD101E" d="m23 146-1 2-8-1-2-4 4-1 2-2 3-5h1v1l1 9v1z"/>
  <path fill="#849C21" d="M37 207v-1h1l2-3v-3h3l3 3v8h-6l-2-2-1-2z"/>
  <path fill="#407314" d="M14 166v-1l-1-2-6-1v-1l8-3c3 3 6 5 10 4l1 1-4 1-5 2v1l-3-1z"/>
  <path fill="#567F24" d="m14 147 7 1c0 3 2 7-4 8l-3-9z"/>
  <path fill="#CF1823" d="M43 211h3v5l-2 2c-3 0-8 1-8-5l1-1 2 2 1-1 3-2z"/>
  <path fill="#89A624" d="m26 200 3-1 2 1 4 5v2l-1 1h-3v-1l-4-1-3-1 2-5z"/>
  <path fill="#537E11" d="M25 162c-4 1-7-1-10-4l2-1 9 1-1 4z"/>
  <path fill="#4A7824" d="M14 165a262 262 0 0 1 3 3l2 2v2l-10-3 5-4z"/>
  <path fill="#D8111E" d="M22 183v-1h2l4-1h2l2-1 1 3h1l-3 2-9-2z"/>
  <path fill="#678B3D" d="m11 139-4-2c-2-1-2-2 1-2h3l2-1h1v2l-2 3h-1z"/>
  <path fill="#3F761A" d="m22 133-2-6 7 2-3 4h-2z"/>
  <path fill="#E5E7D1" d="m27 128-8-1v-1l2-2 1-1 1 1 3 2 2 2h-1z"/>
  <path fill="#AA383C" d="M11 139h6l1 1-2 2-4 1c-4 0-1-2-1-4z"/>
  <path fill="#598031" d="M23 112v-2h2l2 1 1 1-3 3-2 2h-1l1-5z"/>
  <path fill="#457518" d="m23 176-2-3 2-4h1l1 2v4l-1 1v1l-1-1z"/>
  <path fill="#ECF2E1" d="m26 200-2 5-1-7 3 2z"/>
  <path fill="#8DA72F" d="M22 135h-7l7-2v2z"/>
  <path fill="#ECF2E1" d="m22 208 3 3-2 1-1-4z"/>
  <path fill="#B95048" d="m40 213-1 1-2-2v-1l1-2 2 2v2z"/>
  <path fill="#C81D1F" d="m15 135 3 1-1 3h-1l-2-3v-1h1z"/>
  <path fill="#E37D82" d="M28 181h-4l-1-1 1-1 2-1 2 2v1z"/>
  <path fill="#E3F0D8" d="m23 169-2 4-2-1v-2l2-1h2z"/>
  <path fill="#A59C3F" d="m22 123-1 1v-1l-1-3 2-3s1 0 0 0v6z"/>
  <path fill="#85A30E" d="M22 135v-2h3l1 2-2 1h-1l-1-1z"/>
  <path fill="#ECF2E1" d="M31 214h-3l-1-1 4 1z"/>
  <path fill="#8DA72F" d="m20 120 1 3h-3l2-3z"/>
  <path fill="#678B3D" d="M18 123h3v1l-2 2-1-3z"/>
  <path fill="#D1E0BF" d="M11 135H8l2-2 1 2z"/>
  <path fill="#ECF2E1" d="M31 209h3l-1 2-2-2zm-4-3 4 1-4-1z"/>
  <path fill="#9E262E" d="m24 179-1 1-1-3h2v2z"/>
  <path fill="#ECF2E1" d="m38 209-1 2v-4l1 2z"/>
  <path fill="#68874D" d="m11 135-1-2 3 1-2 1z"/>
  <path fill="#ECF2E1" d="M35 207v-2l2 1-2 1zm-2 9-1 1 1-1zm-1 0-1-1 1 1z"/>
  <path fill="#D95D42" d="M14 135v-1 1z"/>
  <path fill="#ECF2E1" d="M33 214v1-1z"/>
  <path fill="#A4553C" d="M23 176v1-1z"/>
  <path fill="#F5DB0A" d="m101 239-5 4-2-2-1-4 1-6v-23l-1-2-3-5h-1l-9 1-13-6 1-3h-1l-2-2 3-4 2 2h7l1 1 14-1h1l1 1a222 222 0 0 0 24 0h17c5-2 4 3 6 4l-6 5-8 5c-5-6-11-2-16-3l-3 1-1 1 1-1h6l-2 4v2h-1a2716 2716 0 0 0 1 29v3l1 4c-5-1-9-2-9-9l-1-26v-2l2-1-3-1-2-4-1 1a103 103 0 0 1 2 5v7l1 19v3l-1 3m-5-38-1 1 2 1-1-2m-1 36h1-1m2-2s-1 0 0 0z"/>
  <path fill="#E9B30A" d="M43 129c-2-9-4-18-10-26l-1-7 7 6 9 17 2 14v33c1 7 1 14 6 20l3 4 15 14-1 4h2l3 7h1l3-7 8 5 3-3v3l-2 2-3 5c-14-2-27-7-36-20l-9-23 2-35-2-13z"/>
  <path fill="#4E7C1A" d="m54 238 10-15 9-3 7 3-1 5 6 1-2 3c-3-2-6-2-9 1l-2 1h-2l-3-9h-1l-2 5-4 7c-1 3-3 2-6 1z"/>
  <path fill="#4A751B" d="M46 216v-13l-3-3a52 52 0 0 1 0-8l6 9 10 12-1 1-3 2h-2l-3 2-4-2z"/>
  <path fill="#E0AF11" d="m91 216 2-2v23l1 4-2 2c-9 4-12 2-14-6l2 1c7 1 11-1 11-8v-14z"/>
  <path fill="#E2B211" d="m114 244-1-4v-11l2 1 2 6 11 2c-2 4-3 8-10 7l-4-1z"/>
  <path fill="#D11121" d="m58 214 1-1 6 4-2 5-4 3h-8v-1l2-5c2 0 4 3 4-1l1-4z"/>
  <path fill="#4C741D" d="M74 233c3-3 6-3 9-1l2-3 3-1c0 7-2 8-8 6l-6-1z"/>
  <path fill="#85A30E" d="m88 228-3 1-6-1 1-5c3 0 7-1 8 5z"/>
  <path fill="#879E17" d="m63 222 2-5 8 3-9 3-1-1z"/>
  <path fill="#F7E12C" d="M102 233a987 987 0 0 1 1-25l-1 6v19z"/>
  <path fill="#EBD10D" d="M103 210z"/>
  <path fill="#F3D80A" d="m92 243 2-2 2 2h-4zm9-4 1-3-1 3z"/>
  <path fill="#87A625" d="m64 230 2-5h1l3 8-6-3z"/>
  <path fill="#477418" d="m124 229 7 4-11 2-2-5c2-1 4-3 6-1z"/>
  <path fill="#EAB308" d="m32 96 1 7c-7-9-15-16-26-21l3-3 25-22c5 6 7 7 12 2l5-1h2l-1 2-1 1c-7 5-8 9-3 15v4l-4 2-3 2a566 566 0 0 1-10 12z"/>
  <path fill="#E4B10D" d="M50 57h-4l-4-13h9l7 2 2 2c0 4 3 4 5 4v1l1 2 1 2-1 14-4 1v-7l-2-6c-2-3-7-4-10-2z"/>
  <path fill="#EDD511" d="m65 43-3-2c8-5 17 2 20 10 0 1-1 4 2 3l-4 13-7 5-2 1-1-2 4-5c4-7-2-19-7-22l-2-1z"/>
  <path fill="#E6AE08" d="m80 67 5-13 11-1-1 16-13 1-2-3z"/>
  <path fill="#EDD511" d="m58 46-7-2c1-4 5-3 7-3l7 4c8 9 10 19 5 23l-3-11-1-2-1-2v-1l-5-4-2-2z"/>
  <path fill="#E5CF16" d="m67 57 3 11c5-4 3-14-5-23v-2l2 1c5 3 11 15 7 22l-4 5h-4l1-14z"/>
  <path fill="#B78918" d="M50 57c3-2 8-1 10 2l2 6v7l-12 3v-2l3-1 2 1 3-6c0-3-3-5-6-6l1-1 1-2h-4v-1z"/>
  <path fill="#E4B10D" d="M49 58h3l-4 1 1-1z"/>
  <path fill="#DE031B" d="M102 27v6l-1 6v66h-2V34l-1-5-1-1v-1h5z"/>
  <path fill="#2A0606" d="M99 27h-1l-1-2v-4l2 1v5z"/>
  <path fill="#790C1F" d="m97 25 1 2h-1v-2z"/>
  <path fill="#44771D" d="m97 86-1 18-2-12-6 1c-3-1-4 1-4 4l-1 5-2 3c-4 3-2 4 1 6v12l-6 15c-4 6-8 3-12 4l-2-18-1-4c-3-8-4-15-10-21l5-6 1-1h1l3-3 1-1 3-3 2-3h1l9 1c7 1 13 5 20 3z"/>
  <path fill="#F4D908" d="M97 85c-7 3-13-1-20-2l-9-7h4a34 34 0 0 0 1-4h24v13m-9-5-1-1c-3-5-6-6-9-1 3 3 6 3 10 2z"/>
  <path fill="#790C1F" d="m98 29 1 5v71h-1V29z"/>
  <path fill="#2B2E0E" d="M98 105h1v1l-11-1h5v-9h-9c0-2 1-4 4-3l6-1 2 13h2z"/>
  <path fill="#D1BB29" d="M97 72H73l7-5 2 3 13-1 2 3z"/>
  <path fill="#EAB309" d="M175 100c-8 10-11 22-13 34l1 8-1 21c0 7 1 15-1 22-4 16-15 26-31 32v-2l-1-5v-3l10-8 12-15 5-15 1-29-1-3v-7l-1-7c2-5 1-11 8-12-3-4 0-4 3-5-4-3-1-4 1-5l6-4h2v3z"/>
  <path fill="#EBB406" d="M158 60h2c6 4 6 4 11-3l28 24-18 12-1 1-8-2-6-2c3-4-1-5-3-7l-6-2v-5c3-5 3-9 0-13l1-3z"/>
  <path fill="#E8B30D" d="m158 60-1 3-4-2-1-2h-3l2-2c-5 1-7 5-8 9 0 2-1 6 3 6l-1 2-6-2 1-3c-3-4-2-7-1-11v-1l6-9 7-3 10-1 1 2-1 3c-3 3 0 8-7 8l3 2-1 1h1z"/>
  <path fill="#DFAF11" d="m139 200-10 7h-1l-3 3c-5-2-6 4-9 4l-1 3h-2l-1-11 2-4h-3v-1c5 1 11-3 16 3l-4 1 1 2 3-3 8-4h4m-19 6v1-1z"/>
  <path fill="#809F14" d="M181 132h1v3l-7 1 2 2-9 2-1-6-1-2 1-1v-4l7-1 2 1 4 5h1z"/>
  <path fill="#49781B" d="M163 192v3c1 3 2 6-3 7l3 2-3 6-1 5-3 3-1-2-2-2-2-2 1-5c5-4 7-9 10-15h1z"/>
  <path fill="#E4B30F" d="M116 214c3 0 4-6 9-4l5 6v1l-14 4v-7z"/>
  <path fill="#CC1920" d="m179 184-3 1h-1l-8-8v-2l5-3 5 1v3l-1 3 3 3v2z"/>
  <path fill="#4D7A1B" d="M131 229h-4v-7l9-1 5 4-6 2-4 2z"/>
  <path fill="#D01221" d="m142 215 4-2 2 4v3h2l4 2 2 1v1l-8 1c-5-2-7-6-6-10z"/>
  <path fill="#DA1421" d="m176 127-3-1-4-6 1-3h2l-1-3 1-1 2 1c1 2-2 6 3 6h1l5 1-3 5h-1l-3 1z"/>
  <path fill="#7F9E18" d="M127 222v7h-3c-2-2-4 0-6 1 0-7 0-7 9-8z"/>
  <path fill="#8C9728" d="M142 216c-1 3 1 7 6 9v1l-3 2-4-3-5-4c2-2 3-4 6-5z"/>
  <path fill="#D9AC14" d="m172 92 8 2-5 6v-3h-2l-1-5z"/>
  <path fill="#4E731D" d="m169 120 4 5-6 1 2-6z"/>
  <path fill="#CA212C" d="m148 217-2-4 5-1 2 2v2l-2 2-3-1z"/>
  <path fill="#D7A917" d="M113 217h2v13l-2-1v-12z"/>
  <path fill="#C71627" d="m171 114 1 3-2-1 1-2z"/>
  <path fill="#EBB406" d="M158 60h-1l1-1v1z"/>
  <path fill="#D9AC14" d="M181 94v-1 1z"/>
  <path fill="#4D791E" d="M166 131v1-1z"/>
  <path fill="#7C9C17" d="M163 192h-1l1-1v1z"/>
  <path fill="#EED710" d="m172 92 1 5-6 4c-2 1-5 2-1 5-3 1-6 1-3 5-7 1-6 7-8 12l-2 12v35l-3 13-9 11c-2-1-1-6-6-4l1-2c2-3 4-5 5-9l3-18 1 2 5-2v-2l-6 1v-15l1-3-1-7 1-3 2 3 3-6-6 1v-5l1-1c1-8 3-16 8-22 1-3 1-5-1-7l-16-14-13 5-11 1c-3 0-4-1-4-4V71l21 1 5 3c3 1 5 3 8 3 5 0 11-1 16 3l5 2c2 2 6 3 3 7l6 2z"/>
  <path fill="#D9021C" d="M101 105V39l1-6 3-1 2 18-1 2 1 20-1 9v24h-5z"/>
  <path fill="#0D0A06" d="M104 105h2l1-16h1v12c0 3 1 4 5 4l11-1 2 5-1 7-1 6v-10l-15-2H82c-3-1-5-2-1-5l2-3 1 3h4l11 1 5-1z"/>
  <path fill="#E2AD0A" d="m125 65 1 4h-17V54c8-3 12-1 14 6l1 4 1 1z"/>
  <path fill="#F2D90D" d="M139 57v1l-3 7v4h-4l-4-4c-2-3 0-7 3-8l1 10h1v-4a55 55 0 0 0-1-6c5-4 5-11 11-11v-3l4-1h4l1 1c-3 1-7 1-7 5-4 2-7 4-6 9z"/>
  <path fill="#457022" d="M112 105c-3 0-4-1-4-4V89l4-2 11-1-4 6-1 1c-2-4-3-3-5-1l-1 5v8z"/>
  <path fill="#F2D90D" d="M125 49c4-9 10-11 20-8l-4 1c-4 2-8 4-9 9l-3-4-2 6h-1l-1-4z"/>
  <path fill="#EED710" d="m125 49 1 4h1l2-6 3 4v6h-1c-3 1-5 5-3 8l4 4-1 2-6-6-1-1-1-4 2-11m-1 8s0-1 0 0z"/>
  <path fill="#F9FAF7" d="m117 30 1 2-5 1-3 3 1 14c-3 1-3-1-3-3V30h9z"/>
  <path fill="#E8D114" d="M132 57v-6c1-5 5-7 9-9l2 1v3c-6 0-6 7-11 11z"/>
  <path fill="#98091C" d="m107 50-2-19 1-3h1v22zm0 39a213 213 0 0 1-1-8l1 8z"/>
  <path fill="#E8D114" d="m131 71 1-2h4-1l-1 2v4l-5-3 2-1z"/>
  <path fill="#98091C" d="M107 72z"/>
  <path fill="#E8D114" d="M145 48c0-4 4-4 7-5v2l-7 3z"/>
  <path fill="#F9FAF7" d="M123 44v-2l1 1-1 1z"/>
  <path fill="#E8D114" d="M151 42h-3 3z"/>
  <path fill="#D9021C" d="M107 28h-1v-1l2 1h-1z"/>
  <path fill="#14100B" d="M166 42v1-1z"/>
  <path fill="#A50A22" d="m110 24 1-2v-1c3 2 3 2-1 6v-3z"/>
  <path fill="#96091E" d="M107 22h-5v-2l5 2z"/>
  <path fill="#B90825" d="M102 20v5h-1l-2-2v-1l3-2z"/>
  <path fill="#96091E" d="m103 23 3 1-3 2v-3z"/>
  <path fill="#DF0422" d="M103 23a150 150 0 0 1-1 3v-4h1v1z"/>
  <path fill="#790C1F" d="M102 25v2h-3v-1l2-1h1z"/>
  <path fill="#4F0E03" d="M110 24v3-3z"/>
  <path fill="#7F9F16" d="m189 155 2 1v2l-1 1h-1l-12-1-4-9 13-2h3l-2 2-2 4 4 2z"/>
  <path fill="#7D9C1C" d="m177 173-5-1 2-6 4 2c1 1 2-1 2-1l-3-4 6 2v4l-2 3h-1l-3 1z"/>
  <path fill="#567D1A" d="m185 147-13 2-2-1v-2l12-4 3 5z"/>
  <path fill="#791" d="M170 146v2l2 7-2 3-3-3 2-9h1z"/>
  <path fill="#839E1D" d="M170 146h-1v-3l9-4h3v3l-11 4z"/>
  <path fill="#4C7C17" d="m181 138-3 1-1-1-2-2 7-1-1 3z"/>
  <path fill="#4A7919" d="m191 159 2 2-1 1-1-3zm-8 10v-4l1 3-1 1z"/>
  <path fill="#4C7C17" d="M169 143v1l-1-1h1z"/>
  <path fill="#4A7919" d="M189 159h1-1zm1 0 1-1v1h-1z"/>
  <path fill="#848F21" d="M156 224v-2l1-4 2-3h4l-5 10-2-1z"/>
  <path fill="#B03143" d="M164 211h2l-2 4h-1v-4h1z"/>
  <path fill="#848F21" d="M160 228v-2 2z"/>
  <path fill="#4D7A1B" d="M135 227z"/>
  <path fill="#848F21" d="m148 226 8-2c-1 4-3 5-8 2z"/>
  <path fill="#C81D1F" d="M163 211v4h-4l1-5h1l2 1z"/>
  <path fill="#E26769" d="m163 211-2-1 3-1v2h-1z"/>
  <path fill="#F9FAF7" d="M179 126h1l2 1-1 4h-1l-1-5z"/>
  <path fill="#407314" d="M182 134a3284 3284 0 0 0 1-2l1 1v1h-2z"/>
  <path fill="#F9FAF7" d="M182 127z"/>
  <path fill="#CF1521" d="M182 134h2l3 3 1 3v2l6 2-1 3h-7l-4-5-1-3 1-4v-1z"/>
  <path fill="#F19095" d="m194 144-6-2h5l1 1v1z"/>
  <path fill="#AB8F36" d="m193 136 2 4h-1l-1-2v-2z"/>
  <path fill="#9E262E" d="M194 140h1l-1 3-1-1 1-2z"/>
  <path fill="#B51A13" d="m189 136 2-1h1v3l-3-2z"/>
  <path fill="#D6836F" d="M192 138v-3l1 1v2h-1z"/>
  <path fill="#C71627" d="M177 120c-5 0-2-4-3-6l2-1v2a401 401 0 0 0 1 3v2z"/>
  <path fill="#CA0517" d="M176 114a977 977 0 0 0 2-1l1 2-2 1-1-2z"/>
  <path fill="#EB071C" d="m179 115-1-2h1v2z"/>
  <path fill="#982C38" d="M177 120v-2h2l-1 2h-1z"/>
  <path fill="#EB6E70" d="m176 115 1 2h-1v-2z"/>
  <path fill="#C81F35" d="m189 136 3 2v2h-4l-1-3h1l1-1z"/>
  <path fill="#407314" d="m181 172 2-3v2l-1 2-1-1z"/>
  <path fill="#982C38" d="m176 179 1-3 1 1h3v1l-5 1z"/>
  <path fill="#CC0C25" d="m178 177-1-1v-3l3-1-2 5z"/>
  <path fill="#B90A1A" d="M181 178v-1l1-1 1 3-2-1z"/>
  <path fill="#EB071C" d="M179 184v-2h2v2h-2z"/>
  <path fill="#B51A13" d="M181 184v-2h2v1l-2 1z"/>
  <path fill="#E3797D" d="M183 182h-2l-2-1-3-2 5-1 2 1v3z"/>
  <path fill="#4F7718" d="m31 185 3-2c1-3 4-6 1-9v-1l-1-1v-2l5-1 2 16 2 6v1l-6 2v1l-4 4-2 1v-3l1-1 4-4h1v-1l-1 1h-2l-1-1v-1l-2-4v-1z"/>
  <path fill="#497619" d="m39 169-5 1-3-1v-2l-1 1h-2l1-3-3-2-1-1 1-4h2v3l2-2a130 130 0 0 0 4-11l2 2c-2 8-2 8 3 8l1 3v3l-1 3v2z"/>
  <path fill="#4E7418" d="m24 136 2-1a21 21 0 0 1 3 0h3l-3 3 1 1h6l2 2-1-3 3-5v21l-3-4c1-4 1-6-4-7-3-1-6-5-9-7z"/>
  <path fill="#E6BD12" d="m43 129 2 13-2 35v-48z"/>
  <path fill="#7B9F13" d="m37 150 3 5v2l-1 1c-5 0-5 0-3-8h1z"/>
  <path fill="#4F6E1C" d="m37 119 2 7-1 2-3-1-2-3 1-3h1l2-2z"/>
  <path fill="#819F19" d="m38 128 1-2 1 6-3 6-1 1h-2l2-6 2-5z"/>
  <path fill="#80981E" d="m28 112-1-1-2-1v-3l7 1 2 5h-3l1-2-2 1h-2z"/>
  <path fill="#C8101A" d="M31 113h3l3 6-2 1v-3l-1 1-2-1-1-2v-2z"/>
  <path fill="#4E7418" d="m39 158 1-1v3l-1-2zm0 9v-3 3z"/>
  <path fill="#7F981B" d="M31 185v1l2 4v1l1 1-2 4-1 1h-3l-1-11h-7l2-3 9 2z"/>
  <path fill="#4D7C16" d="M28 197h3v3l-2-1-1-2z"/>
  <path fill="#791" d="M25 107v3h-2l2-3z"/>
  <path fill="#5A7C15" d="M51 225h7l-5 4c-3 0-4-1-2-4z"/>
  <path fill="#BB252F" d="m53 219-2 5-1-6 3-2v3z"/>
  <path fill="#537E11" d="m34 150-4 9-2 2v-3c2-3 4-6 0-10v-1l3 1h1l2 2z"/>
  <path fill="#4C7D16" d="M28 147v1l-5-2 1-1h1l3 2z"/>
  <path fill="#7F9319" d="M25 145h-1l-1-9h1c3 2 6 6 9 7 5 1 5 3 4 7h-1l-2-2h-3c-1-4-3-6-6-3m9 1-1-1 1 1z"/>
  <path fill="#EB6E70" d="m17 139 1-3 3-1-3 5-1-1z"/>
  <path fill="#8DA72F" d="M23 136h-1v-1l1 1z"/>
  <path fill="#749B12" d="m33 199 4-4h1l-1-1 6-2v8h-3l-7-1z"/>
  <path fill="#4D7C16" d="m33 199 7 1v3l-2 3-3-1-4-5 2-1z"/>
  <path fill="#CA4150" d="M40 213v-2h3l-3 2z"/>
  <path fill="#4F7E21" d="m29 165-1 3h-1l-2-1-1 2h-5l-2-1v-2h5l7-1z"/>
  <path fill="#537E11" d="m29 165-7 1v-2l4-1 3 2z"/>
  <path fill="#659A19" d="M22 164v2h-5l5-2z"/>
  <path fill="#87A625" d="m17 168 2 1v1l-2-2z"/>
  <path fill="#E4041C" d="M35 174c3 3 0 6-1 9h-1v-3l-2-3v-2h1l3-1z"/>
  <path fill="#C81F35" d="m31 177 2 3h-1l-2 1v-4h1z"/>
  <path fill="#FBA2A4" d="M30 179v2h-2v-1l2-1z"/>
  <path fill="#CA0517" d="M32 180h1v3l-1-3z"/>
  <path fill="#D95D42" d="m14 136 2 3h-4l2-3z"/>
  <path fill="#85A41E" d="M28 135h-2l-1-2 2-4 1-1 4 2-3 3-1 2z"/>
  <path fill="#819F19" d="m29 133 3-3-4-2-2-2 7-2 2 4-3 7h-3v-2z"/>
  <path fill="#D30E1F" d="m33 124-7 2-3-3v-2l4-1h6l1 1-1 3z"/>
  <path fill="#98091C" d="M23 121v2h-1v-3l1 1z"/>
  <path fill="#C91221" d="M28 112h2v6l-2-1-3-2 3-3z"/>
  <path fill="#BB252F" d="m23 121-1-2 1-2 2-2 1 5h1l-4 1z"/>
  <path fill="#D01E29" d="M25 175v-3h6v1l-2 3h-2l-2-1z"/>
  <path fill="#899F13" d="M31 172h-6v-1l2-2a610 610 0 0 0 4 0l3 1-1 1-2 1z"/>
  <path fill="#7D9C1C" d="m27 169-2 2-1-2 1-2 2 2z"/>
  <path fill="#D43140" d="M24 179v-3h1v1l1 1-2 1z"/>
  <path fill="#A4553C" d="M25 176h-1l1-1v1z"/>
  <path fill="#9E262E" d="M26 178v-1l1-1h2l1 1v2l-2 1-2-2z"/>
  <path fill="#4A7824" d="M19 170v-1h1l-1 1z"/>
  <path fill="#056DB3" d="M94 189h-1l-4-8v-13c5-6 6-8 1-13v-5c1-5 3-8 8-7h7c9 0 9 0 12 8v5l-4 2c-1 5 2 8 5 11l2 12-1 1h-2l-5 7H94z"/>
  <path fill="#056EB3" d="M77 189h-7l-2-2-5-18v-26h12c2 1 4 1 5 3l3 4v10c-4 2-4 5-4 8l4 5v9l-6 7z"/>
  <path fill="#E9D413" d="m63 169 5 18-3 4 2 2h1l-1 3-8-6-3-5-3-24 2 3 7-2v2l-1 1h1l1 4z"/>
  <path fill="#E0AF11" d="m93 210-3 3-8-5-3 7h-1l-3-7h-2l1-4 5 3 1-5 9-1 1 3v-3l3 6v3z"/>
  <path fill="#08090D" d="m77 189 6-7h6l4 7h-1a673 673 0 0 0-15 0z"/>
  <path fill="#978520" d="m94 190 18-1h16l7-1v2a268 268 0 0 1-41 0z"/>
  <path fill="#201C0A" d="m80 202-1 5-5-3-15-14 7 6 14 6z"/>
  <path fill="#20180B" d="m141 194 9-11 1 1-12 15h-4l6-5z"/>
  <path fill="#0C0A0D" d="M113 217v23l-1-2v-32l1 11z"/>
  <path fill="#070106" d="M93 210v-3l1 1v13a79 79 0 0 0 0 4v6l-1 6v-27z"/>
  <path fill="#EBD10D" d="M112 208a744 744 0 0 1-1 0h1z"/>
  <path fill="#F3D80A" d="M94 221z"/>
  <path fill="#978520" d="M78 190z"/>
  <path fill="#F7E12C" d="m101 206-2-4 1-1 2 4-1 1z"/>
  <path fill="#978520" d="M70 189h6-6z"/>
  <path fill="#EBD10D" d="m101 206 1-1 3 1-2 1h-2v-1zm10-5v1h-3l3-1z"/>
  <path fill="#F3D80A" d="m96 201 1 2-2-1 1-1zm-2 30v-4 4zm-4-27-1-3h1v3zm5 33h1-1zm2-2c-1 0 0 0 0 0z"/>
  <path fill="#EBD10D" d="M112 237v1-1z"/>
  <path fill="#F3D80A" d="M94 225v-1 1z"/>
  <path fill="#EBD10D" d="M111 208z"/>
  <path fill="#E8D412" d="M51 99c6 6 7 13 10 21l-4 11-5-1-2-12-2 1-9-17v-3l8 7c4 1 2-4 4-7z"/>
  <path fill="#312610" d="m48 119 2-1 2 12v31l4 24c-5-5-5-12-6-19v-33l-2-14z"/>
  <path fill="#1C1308" d="M39 99v3l-7-6-2-2 12-10 1 2-9 8 5 5z"/>
  <path fill="#A1323D" d="M53 219v-3h2l2 2c0 4-2 1-4 1z"/>
  <path fill="#D43140" d="m57 218-2-2 3-2-1 4z"/>
  <path fill="#F4DA0B" d="m39 99-5-5 9-8-1-2 3-2 4-2h7l-5 4 1 2 3-2 2 3 4-5-6 2 1-4 4-2h3l4 3v1l-2 3-3 3-1 1-3 3h-1l-1 1-5 6c-2 3 0 8-4 7l-8-7z"/>
  <path fill="#120B0B" d="M52 61c3 1 6 3 6 6l-3 6-1-1 2-5-3-2-4 3c-1 1 0 3 1 5v3h-1c-5-6-4-10 3-15z"/>
  <path fill="#ECD70E" d="m49 76 1 1 10 1-4 2h-7v-4z"/>
  <path fill="#21180F" d="m60 78-10-1v-2l12-3 4-1h4l1 2-1 2-2 1-3 1-3 1h-2z"/>
  <path fill="#E5CF16" d="m60 48 5 4c-2 0-5 0-5-4z"/>
  <path fill="#15110B" d="M62 72z"/>
  <path fill="#D1BB29" d="M73 72v1h-2l2-1z"/>
  <path fill="#C78E0E" d="M50 73c-1-2-2-4-1-5l4-3 3 2-3 5-3 1z"/>
  <path fill="#790C1F" d="m104 105-5 1v-1h5z"/>
  <path fill="#98091C" d="m101 25-2 1v-3l2 2z"/>
  <path fill="#EBB309" d="M123 112v9l3 5 4 14-1 2h-18v-13c0-5-3-9-8-9s-8 4-8 9v13l-20-1 1-3 6-15 1-9 2-3 2 2-1 11 4-3c0-3 3-6-1-8l8-3a155 155 0 0 1 26 2m-5 10 3-9-6 1c1 3-2 6 3 8z"/>
  <path fill="#E8D316" d="m53 161-1-31 5 1 4-11 1 4-1 5 1 33-7 2-2-3z"/>
  <path fill="#E9B40A" d="M84 105v-8l9-1v9h-9z"/>
  <path fill="#0B0B0C" d="m62 162-1-33 1-5 2 18c4-1 8 2 12-4l-1 4v1H63v26l-1-4v-3z"/>
  <path fill="#D3A816" d="m87 113-2-2-2 3-1 9v-12l15-1-8 3h-2z"/>
  <path fill="#EFDB13" d="m65 77 3-1 9 7-9-1-1-1-2-4z"/>
  <path fill="#DCD726" d="M88 80c-4 1-7 1-10-2 3-5 6-4 9 1l1 1z"/>
  <path fill="#EFDB13" d="M71 73h2a7 7 0 0 1-1 3h-2l1-3zm1 3z"/>
  <path fill="#362B12" d="m151 184-1-1 4-14a2161 2161 0 0 0 2-39v39l-5 15z"/>
  <path fill="#F8B80E" d="M156 169z"/>
  <path fill="#BDA01C" d="m130 215-5-5 3-3 1 3 1 5z"/>
  <path fill="#0A0C13" d="m129 210-1-3h1v3z"/>
  <path fill="#1B140A" d="M134 75v-2h3v-1h2l6 2 5 1c6-1 9-5 5-9l-4-1-1 5 1 3c-6-4-6-7 1-12h1l4 2c3 4 3 8 0 13v5c-4-4-10-3-15-3-3 0-5-2-8-3z"/>
  <path fill="#B68915" d="m150 75-5-1 1-2c-4 0-3-4-3-6 1-4 3-8 8-9l-2 2h3v2c-7 5-7 8-2 12v2z"/>
  <path fill="#E8D114" d="M139 72h-3l-1-2 1-1v-4l3-7c-1 4-2 7 1 11l-1 3zm0-15c-1-5 2-7 6-9l-6 9z"/>
  <path fill="#EBB406" d="M152 61v-2l1 2h-1z"/>
  <path fill="#EAB309" d="m127 204-3 3-1-2 4-1z"/>
  <path fill="#CBD6B6" d="m179 126 1 5-4-4 3-1z"/>
  <path fill="#B52529" d="M156 218v4l-2-2-1-1v-3h2l1 2z"/>
  <path fill="#E26769" d="M155 216h-2v-1l2 1z"/>
  <path fill="#A32C38" d="M153 218v1l-3 1h-2v-3l3 1h2z"/>
  <path fill="#E3797D" d="m150 220 3-1 1 1v2l-4-2z"/>
  <path fill="#ED7887" d="M154 222v-2l2 2v1l-2-1z"/>
  <path fill="#A32C38" d="M148 220z"/>
  <path fill="#EAB309" d="M175 97z"/>
  <path fill="#E26769" d="M153 218h-2l2-2v2z"/>
  <path fill="#44771D" d="m130 139-4-13-2-4 1-6 1-7-2-5-3-7c2-3 2-5-2-5l4-6 13-5 16 14c2 2 2 4 1 7-5 6-7 14-8 22l-1 1-1 17c-5 0-9 1-13-3z"/>
  <path fill="#066EB4" d="m136 188-8 1-3-5 1-11c3-3 3-9-1-12h-1l-1-1v-10c3-7 14-10 21-5v16l-3 18c-1 4-3 6-5 9z"/>
  <path fill="#0E0B08" d="M144 145c-7-5-18-2-21 5h-3l-2-1-1 2c-3-8-3-8-12-8h-7c-5-1-7 2-8 7h-7l-3-4c-1-2-3-2-5-3v-1h20v-13c0-5 3-9 8-9s8 4 8 9v13h18l1-2c4 3 8 2 13 2l1-17v20m-46-6c0 5 4 3 6 3 1 0 4-2 4-4l-1-10c0-2-3-3-4-5l-5 6v10z"/>
  <path fill="#C2AB28" d="M153 135z"/>
  <path fill="#D1C429" d="M144 161v-1l6-1v2l-5 2-1-2zm1-29-1-2 6-1-3 6-2-3zm0 10-1-7 1 7zm-1 16v-5 5z"/>
  <path fill="#EAB50A" d="m121 97 3 6-11 2-1-8h9z"/>
  <path fill="#D3A816" d="M124 112zm0 10 2 4-3-5 1 1z"/>
  <path fill="#2B2E0E" d="M84 105h2-2z"/>
  <path fill="#EED710" d="M124 64z"/>
  <path fill="#190D0C" d="M131 57h1v1l1 5v4h-1l-1-10z"/>
  <path fill="#192108" d="M121 97h-9l1-5 5 1 1-1c4 0 4 2 2 5z"/>
  <path fill="#44771D" d="m118 93-5-1c2-2 3-3 5 1z"/>
  <path fill="#F2D90D" d="M124 57c0-1 0 0 0 0z"/>
  <path fill="#8C9728" d="M137 73h-3v-2l2 1 1 1z"/>
  <path fill="#190D0C" d="m136 72-2-1 1-2 1 3z"/>
  <path fill="#A1323D" d="M188 140h4l-1 2h-3v-2z"/>
  <path fill="#C12F40" d="m191 142 1-2v-2h1l1 2-1 2h-2z"/>
  <path fill="#4D7C16" d="m32 196 3-4h1l-4 4zm1-6-2-4 2 4z"/>
  <path fill="#C79D5B" d="m31 172 2-1 1 1-2 1h-1v-1z"/>
  <path fill="#CA0517" d="m35 174-3 1v-2a226 226 0 0 0 3 1z"/>
  <path fill="#BB252F" d="M35 173h-3l2-1 1 1z"/>
  <path fill="#4D7C16" d="m36 192 1-1v1h-1zm1 2 1 1h-1v-1zm-3-2-1-1 1 1z"/>
  <path fill="#4C7D16" d="M32 148h2v2l-2-2z"/>
  <path fill="#537E11" d="M31 169h-1v-1l1-1v2z"/>
  <path fill="#7B9E27" d="M30 168v1h-3v-1h3z"/>
  <path fill="#7EA008" d="m32 135 3-7h3l-2 5-2 6h-4l-1-1 3-3zm4 4 1-1 1 3-2-2z"/>
  <path fill="#809F06" d="M29 133v2h-1l1-2z"/>
  <path fill="#EB071C" d="m34 121-1-1-1-3 2 1 1 1a757 757 0 0 1-1 2z"/>
  <path fill="#588221" d="M30 113v-1l2-1-1 2h-1z"/>
  <path fill="#B90A1A" d="m32 117 1 3h-2a13 13 0 0 1-1-2v-2l1-1 1 2z"/>
  <path fill="#CC0C25" d="m35 119-1-1 1-1v2z"/>
  <path fill="#E26769" d="M31 115h-1v-2h1v2z"/>
  <path fill="#497619" d="M25 145c3-3 5-1 6 3l-3-1-3-2z"/>
  <path fill="#537E11" d="M27 168v1l-2-2 2 1z"/>
  <path fill="#C91221" d="M32 173v2h-1v-2h1zm-1 2v1h-1l1-1z"/>
  <path fill="#9E262E" d="M30 176h1v1h-1v-1z"/>
  <path fill="#A1323D" d="M27 120h-1l2-2h2v2h-3z"/>
  <path fill="#C81F35" d="M30 120v-2l1 2h-1z"/>
  <path fill="#D5525D" d="m28 117-2 3-1-5 3 2z"/>
  <path fill="#EB6E70" d="M30 176v1l-1-1 2-3v2l-1 1z"/>
  <path fill="#DA676B" d="m27 176-2 1v-2l2 1z"/>
  <path fill="#DBDBD9" d="m83 172-4-4c0-3 0-6 4-8h1l1-1 2-1 1-1h1l1-2c5 5 4 7-1 13h-1l-2 1-1 1h-1l-1 2z"/>
  <path fill="#DBDBDA" d="M124 161h1l1 8-4 1-1-1-2-1h-1c-3-2-6-5-5-10l11 3z"/>
  <path fill="#0A0C13" d="m125 185 3 4h-16l5-7h5l3 3z"/>
  <path fill="#8F8B7E" d="m118 169 1-1 1 1-1 11-1-11zm6-8-10-3 3-2h3l1 3 1 1h1l1 1z"/>
  <path fill="#FAFBF8" d="M88 168h1v13l-1 1v-14z"/>
  <path fill="#FEFEFE" d="M120 181v-12h1a23127 23127 0 0 0-1 13v-1z"/>
  <path fill="#F8EFDC" d="M118 156h-1v-5l1-1v6z"/>
  <path fill="#545145" d="m90 155-1 2v-7h1v5z"/>
  <path fill="#8F8B7E" d="M118 182h-1 1z"/>
  <path fill="#FEFBF6" d="m83 173 1-2v11h-1v-9z"/>
  <path fill="#F9F3EF" d="M84 160h-1v-10h1v10z"/>
  <path fill="#E8D316" d="M62 164v1h-1l1-1z"/>
  <path fill="#F3D80A" d="M90 204z"/>
  <path fill="#FAFBF8" d="m85 170 1-1 1 13h-2v-12z"/>
  <path fill="#706E6D" d="m87 182-1-13 2-1v14h-1z"/>
  <path fill="#2F2E2C" d="M85 170v12h-1v-12h1z"/>
  <path fill="#ECD70E" d="M56 80a58 58 0 0 1-1 4l-3 2-1-2a71 71 0 0 1 5-4zm-1 4 6-2-4 5-2-3zm10-7 2 4-4-3 2-1z"/>
  <path fill="#211409" d="M87 113h2c4 2 1 5 1 8l-4 3 1-11z"/>
  <path fill="#1F1708" d="M118 122c-5-2-2-5-3-8l6-1-3 9z"/>
  <path fill="#E9D413" d="M55 164z"/>
  <path fill="#BE890E" d="m150 75 1-2-1-3 1-5 4 1c4 4 1 8-5 9z"/>
  <path fill="#190D0C" d="m137 73-1-1h1v1z"/>
  <path fill="#09213E" d="m125 184-3-2v-11l4-2-1-8c4 3 4 9 1 12l-1 11z"/>
  <path fill="#F5F7EB" d="M123 160h-1v-10h1v10z"/>
  <path fill="#C98F07" d="M98 139v-10l5-6c1 2 4 3 4 5l1 10c0 2-3 4-4 4-2 0-6 2-6-3z"/>
  <path fill="#ECF0F2" d="M86 158h-1v-8l2 1-1 7z"/>
  <path fill="#313033" d="M85 150v9l-1 1v-10h1z"/>
  <path fill="#2C232F" d="M122 150v10l-1-1v-9h1z"/>
  <path fill="#FEFBF6" d="M121 150v8l-1-2v-6h1z"/>
  <path fill="#98A5AF" d="M120 150v6h-1l-1-5v-1h2z"/>
  <path fill="#777573" d="M87 158v-7l1-1v7l-1 1z"/>
  <path fill="#ECF0F2" d="M88 157v-7h1v7h-1z"/>
  <path fill="#292322" d="M122 170v12h-1v-13l1 1z"/>
  <path fill="#A3A5A3" d="M121 169h-1l-1-1 2 1z"/>
  <path fill="#70757C" d="m118 151 1 5h-1v-5z"/>
</svg>
